<svg xmlns="http://www.w3.org/2000/svg" style="width:0; height:0; visibility:hidden;">
    <symbol id="icon_analytics" viewBox="0 0 83.848 83.848">
       <path fill="currentColor" d="M81.792,72.176l-2.95-12.72c-0.905-0.93-1.97-1.707-3.202-2.342c-6.184-3.168-12.582-5.798-19.051-8.28
			c-0.482-0.183-1.061-0.552-1.26-0.974c-0.334-0.737-0.596-1.503-0.844-2.273c-0.414,0.466-0.918,0.849-1.5,1.117l-2.961,1.365
			c-0.604,0.277-1.248,0.421-1.912,0.421c-1.785,0-3.42-1.047-4.166-2.666l-0.551-1.195c-1.07,0.127-2.147,0.173-3.228,0.123
			L39.71,45.99c-0.423,1.147-1.269,2.062-2.381,2.574c-0.605,0.278-1.25,0.421-1.914,0.421c-0.542,0-1.077-0.097-1.589-0.285
			l-3.058-1.129c-0.818-0.303-1.508-0.825-2.027-1.498c-0.196,0.577-0.404,1.148-0.629,1.715c-0.141,0.352-0.492,0.712-0.838,0.87
			c-2.003,0.868-4.049,1.675-6.071,2.521c-2.149,0.905-4.322,1.77-6.422,2.767c-2.165,1.038-4.269,2.2-6.387,3.34
			c-1.248,0.667-2.414,1.407-3.388,2.324l-2.95,12.564c14.37,0,21.874,10.393,36.826,11.673l-5.509-7.604l8.544-23.369l-2.643-5.677
			h5.293l-2.65,5.677l8.545,23.369l-5.366,7.419C55.983,81.842,73.362,72.176,81.792,72.176z"/> <path fill="currentColor" d="M19.699,19.872l2.418,0.894c-0.19,1.762-0.128,3.561,0.204,5.349l-2.336,1.075c-1.458,0.672-2.098,2.405-1.426,3.862
			l1.364,2.962c0.671,1.458,2.404,2.098,3.862,1.426l2.336-1.076c1.143,1.415,2.469,2.631,3.934,3.632l-0.893,2.416
			c-0.271,0.729-0.24,1.52,0.086,2.227c0.324,0.706,0.906,1.245,1.636,1.516l3.058,1.129c0.729,0.27,1.52,0.239,2.227-0.086
			s1.244-0.908,1.512-1.636l0.893-2.419c1.763,0.19,3.562,0.129,5.349-0.204l1.076,2.336c0.672,1.458,2.404,2.099,3.861,1.427
			l2.961-1.364c1.459-0.672,2.099-2.404,1.427-3.863l-1.076-2.336c1.414-1.144,2.63-2.469,3.631-3.932l2.418,0.893
			c0.729,0.271,1.521,0.238,2.228-0.088c0.707-0.324,1.244-0.906,1.514-1.635l1.129-3.059c0.557-1.506-0.217-3.183-1.723-3.74
			l-2.418-0.893c0.19-1.763,0.129-3.561-0.203-5.349l2.336-1.076c1.458-0.671,2.098-2.404,1.426-3.863l-1.363-2.96
			c-0.672-1.458-2.404-2.099-3.861-1.427l-2.338,1.077c-1.143-1.415-2.469-2.631-3.933-3.632l0.894-2.417
			c0.556-1.506-0.217-3.185-1.723-3.74l-3.058-1.13c-1.46-0.538-3.202,0.265-3.74,1.723l-0.894,2.418
			c-1.762-0.19-3.561-0.128-5.348,0.203l-1.076-2.335c-0.671-1.459-2.405-2.099-3.863-1.427l-2.96,1.363
			c-1.458,0.672-2.098,2.405-1.427,3.863l1.077,2.336c-1.414,1.144-2.63,2.47-3.632,3.934l-2.415-0.892
			c-1.457-0.542-3.203,0.261-3.742,1.721l-1.129,3.059c-0.269,0.73-0.238,1.521,0.087,2.228
			C18.39,19.067,18.972,19.605,19.699,19.872z M36.343,13.628c5.024-2.313,10.973-0.118,13.287,4.906s0.118,10.973-4.906,13.287
			c-5.024,2.313-10.973,0.118-13.287-4.906C29.123,21.891,31.319,15.943,36.343,13.628z"/> 
    </symbol>
    <symbol id="icon_bem" viewBox="0 0 97.4 83.9">
      <path fill="#FFE8B6" d="M41.2 49.9c-8.7 0-12.5 6.4-12.5 12 0 4.6 2.1 8.4 3.2 10h17.8v-20.9c-2.3-.6-5.2-1.1-8.5-1.1z"/><path fill="#FFC31A" d="M41.3 24.1h-16l-12.3-24.1h-12.8v71.9h31.8c-1.1-1.6-3.2-5.3-3.2-10 0-5.6 3.8-12 12.5-12l14.6 3.5v-14.7c-.1-8.3-6-14.6-14.6-14.6zm14.5 47.8h41.5v12h-41.5z"/><path fill="#010101" d="M37.2 30.7s-11.3-.1-13.2-.1c-14.4 0-20.1-10.2-20.1-10.2 0 2.7.1 13.5 6.4 17-3 .3-6.1-.9-6.1-.9 2.5 7.8 13 9.1 18.3 9.1h18.7c3.3 0 6.2.5 8.5 1.1v-5.5c0-7-4.3-10.5-12.5-10.5z"/><path fill="#fff" d="M43.9 40.2h-4.4l-5-1.1v-1.1h9.4z"/>
    </symbol>
    <symbol id="icon_block" viewBox="0 0 612 612">
       <path fill="currentColor" d="M172.227,387.451l-0.284-129.528c-0.014-5.901,6.015-9.891,11.44-7.571l109.174,46.669c3.017,1.29,4.976,4.251,4.984,7.532
		l0.284,129.529c0.014,5.9-6.015,9.891-11.441,7.57l-109.174-46.669C174.194,393.693,172.234,390.732,172.227,387.451z
		 M433.512,249.1c4.331-0.011,8.216,3.472,8.228,8.202l0.284,129.529c0.008,3.28-1.938,6.251-4.949,7.556l-108.952,47.186
		c-1.074,0.466-2.176,0.683-3.248,0.686c-4.331,0.01-8.217-3.473-8.228-8.202l-0.284-129.528c-0.007-3.281,1.938-6.251,4.949-7.556
		l108.952-47.186C431.338,249.32,432.438,249.103,433.512,249.1L433.512,249.1z M305.226,163.638
		c1.135-0.003,2.271,0.229,3.333,0.698l114.863,50.636c6.517,2.873,6.538,12.111,0.035,15.014l-114.623,51.178
		c-1.06,0.473-2.194,0.711-3.329,0.714c-1.135,0.003-2.271-0.229-3.332-0.698l-114.864-50.636
		c-6.516-2.873-6.538-12.111-0.035-15.014l114.624-51.179C302.957,163.878,304.091,163.641,305.226,163.638L305.226,163.638z
		 M331.597,537.555v-62.06h-51.083v62.06h-48.937L306.047,612l74.481-74.445H331.597z M537.555,280.403h-62.06v51.083h62.06v48.937
		L612,305.953l-74.445-74.482V280.403z M280.403,74.445v62.06h51.083v-62.06h48.937L305.953,0l-74.482,74.445H280.403z
		 M74.445,331.597h62.06v-51.083h-62.06v-48.937L0,306.047l74.445,74.481V331.597z"/> 
    </symbol>
    <symbol id="icon_csssr" viewBox="0 0 618 148">
      <path fill="currentColor" d="M21.042 23.056C7.707 36.76.482 55.104.482 74.186c0 20.75 7.04 38.906 22.418 52.797 14.45 13.15 32.977 20.564 52.428 20.564 11.302 0 20.01-2.777 32.052-6.484v-43.54c-7.595 9.078-19.45 14.82-31.308 14.82-22.604 0-37.793-15.935-37.793-37.98 0-21.674 15.008-38.717 37.233-38.717 5.115 0 10.14.962 14.83 2.73 5.816-10.463 11.287-20.86 17.004-30.905C96.61 3.04 85.872.453 74.214.453c-19.636 0-39.462 8.52-53.172 22.604zM212.464 40.1c-6.67-5.557-15.194-9.265-24.083-9.265-6.67 0-15.563 3.893-15.563 11.672 0 8.15 9.818 11.302 16.12 13.336l9.262 2.778c19.45 5.74 34.455 15.56 34.455 38.164 0 13.895-3.333 28.16-14.45 37.607-10.932 9.265-25.567 13.156-39.646 13.156-17.6 0-34.832-5.926-49.09-15.934l15.562-29.27c9.08 7.965 19.82 14.45 32.232 14.45 8.52 0 17.598-4.257 17.598-14.08 0-10.187-14.265-13.71-22.044-15.933-22.79-6.486-37.793-12.413-37.793-39.46 0-28.344 20.195-46.87 48.17-46.87 14.08 0 31.308 4.446 43.72 11.486L212.464 40.1zM335.822 40.1c-6.67-5.557-15.193-9.265-24.082-9.265-6.67 0-15.564 3.893-15.564 11.672 0 8.15 9.818 11.302 16.12 13.336l9.262 2.778c19.45 5.74 34.456 15.56 34.456 38.164 0 13.895-3.333 28.16-14.45 37.607-10.933 9.265-25.567 13.156-39.646 13.156-17.598 0-34.83-5.926-49.09-15.934l15.563-29.27c9.08 7.965 19.822 14.45 32.233 14.45 8.52 0 17.598-4.257 17.598-14.08 0-10.187-14.265-13.71-22.044-15.933-22.79-6.486-37.793-12.413-37.793-39.46 0-28.344 20.196-46.87 48.17-46.87 14.08 0 31.31 4.446 43.72 11.486L335.823 40.1zM459.177 40.1c-6.67-5.557-15.194-9.265-24.083-9.265-6.67 0-15.564 3.893-15.564 11.672 0 8.15 9.818 11.302 16.12 13.336l9.263 2.778c19.45 5.74 34.455 15.56 34.455 38.164 0 13.895-3.332 28.16-14.45 37.607-10.932 9.265-25.566 13.156-39.646 13.156-17.597 0-34.83-5.926-49.09-15.934l15.563-29.27c9.078 7.965 19.82 14.45 32.232 14.45 8.52 0 17.598-4.257 17.598-14.08 0-10.187-14.265-13.71-22.044-15.933-22.788-6.486-37.793-12.413-37.793-39.46.005-28.344 20.195-46.87 48.17-46.87 14.08 0 31.31 4.446 43.72 11.486L459.177 40.1zM617.262 143.84H576.8l-34.276-53.727h-.37v53.727h-36.31V4.154h54.282c27.6 0 48.536 13.155 48.536 42.98 0 19.266-10.743 35.938-30.564 39.456l39.164 57.25zM542.15 66.774h3.52c11.857 0 25.192-2.223 25.192-17.412s-13.335-17.413-25.19-17.413h-3.523v34.824z"/>
    </symbol>
    <symbol id="icon_element" viewBox="0 0 612 612">
       <g> <path fill="currentColor" d="M1.659,484.737L1.001,206.595c-0.032-13.686,13.95-22.938,26.534-17.559l253.206,108.241
		c6.997,2.991,11.542,9.859,11.56,17.468l0.658,278.142c0.032,13.687-13.95,22.939-26.534,17.56L13.219,502.206
		C6.222,499.215,1.676,492.347,1.659,484.737z M581.805,219.687L348.142,320.883l0.608,257.406l233.664-101.196L581.805,219.687
		 M591.26,186.131c10.043-0.025,19.056,8.054,19.081,19.022l0.658,278.142c0.018,7.609-4.495,14.5-11.478,17.523l-252.69,109.438
		c-2.493,1.079-5.047,1.583-7.534,1.59c-10.044,0.023-19.058-8.055-19.083-19.022l-0.658-278.143
		c-0.019-7.609,4.495-14.5,11.479-17.523l252.69-109.437C586.218,186.64,588.771,186.137,591.26,186.131L591.26,186.131z
		 M304.152,29.466L61.767,137.691l242.894,107.075l242.386-108.224L304.152,29.466 M304.083,0c2.632-0.006,5.266,0.533,7.728,1.618
		l266.403,117.439c15.112,6.663,15.163,28.088,0.082,34.821L312.451,272.577c-2.456,1.097-5.088,1.648-7.721,1.655
		c-2.632,0.006-5.266-0.533-7.728-1.618L30.6,155.175c-15.113-6.662-15.163-28.088-0.083-34.821L296.361,1.655
		C298.818,0.558,301.449,0.006,304.083,0L304.083,0z"/> </g>
    </symbol>
    <symbol id="icon_logic" viewBox="0 0 932.179 932.179">
       <path fill="currentColor" d="M61.2,341.538c4.9,16.8,11.7,33,20.3,48.2l-24.5,30.9c-8,10.1-7.1,24.5,1.9,33.6l42.2,42.2c9.1,9.1,23.5,9.899,33.6,1.899
		l30.7-24.3c15.8,9.101,32.6,16.2,50.1,21.2l4.6,39.5c1.5,12.8,12.3,22.4,25.1,22.4h59.7c12.8,0,23.6-9.601,25.1-22.4l4.4-38.1
		c18.8-4.9,36.8-12.2,53.7-21.7l29.7,23.5c10.1,8,24.5,7.1,33.6-1.9l42.2-42.2c9.1-9.1,9.9-23.5,1.9-33.6l-23.1-29.3
		c9.6-16.601,17.1-34.3,22.1-52.8l35.6-4.1c12.801-1.5,22.4-12.3,22.4-25.1v-59.7c0-12.8-9.6-23.6-22.4-25.1l-35.1-4.1
		c-4.801-18.3-12-35.8-21.199-52.2l21.6-27.3c8-10.1,7.1-24.5-1.9-33.6l-42.1-42.1c-9.1-9.1-23.5-9.9-33.6-1.9l-26.5,21
		c-17.2-10.1-35.601-17.8-54.9-23l-4-34.3c-1.5-12.8-12.3-22.4-25.1-22.4h-59.7c-12.8,0-23.6,9.6-25.1,22.4l-4,34.3
		c-19.8,5.3-38.7,13.3-56.3,23.8l-27.5-21.8c-10.1-8-24.5-7.1-33.6,1.9l-42.2,42.2c-9.1,9.1-9.9,23.5-1.9,33.6l23,29.1
		c-9.2,16.6-16.2,34.3-20.8,52.7l-36.8,4.2c-12.8,1.5-22.4,12.3-22.4,25.1v59.7c0,12.8,9.6,23.6,22.4,25.1L61.2,341.538z
		 M277.5,180.038c54.4,0,98.7,44.3,98.7,98.7s-44.3,98.7-98.7,98.7c-54.399,0-98.7-44.3-98.7-98.7S223.1,180.038,277.5,180.038z"/> <path fill="currentColor" d="M867.699,356.238l-31.5-26.6c-9.699-8.2-24-7.8-33.199,0.9l-17.4,16.3c-14.699-7.1-30.299-12.1-46.4-15l-4.898-24
		c-2.5-12.4-14-21-26.602-20l-41.1,3.5c-12.6,1.1-22.5,11.4-22.9,24.1l-0.799,24.4c-15.801,5.7-30.701,13.5-44.301,23.3
		l-20.799-13.8c-10.602-7-24.701-5-32.9,4.7l-26.6,31.7c-8.201,9.7-7.801,24,0.898,33.2l18.201,19.399
		c-6.301,14.2-10.801,29.101-13.4,44.4l-26,5.3c-12.4,2.5-21,14-20,26.601l3.5,41.1c1.1,12.6,11.4,22.5,24.1,22.9l28.1,0.899
		c5.102,13.4,11.801,26.101,19.9,38l-15.699,23.7c-7,10.6-5,24.7,4.699,32.9l31.5,26.6c9.701,8.2,24,7.8,33.201-0.9l20.6-19.3
		c13.5,6.3,27.699,11,42.299,13.8l5.701,28.2c2.5,12.4,14,21,26.6,20l41.1-3.5c12.6-1.1,22.5-11.399,22.9-24.1l0.9-27.601
		c15-5.3,29.199-12.5,42.299-21.399l22.701,15c10.6,7,24.699,5,32.9-4.7l26.6-31.5c8.199-9.7,7.799-24-0.9-33.2l-18.301-19.399
		c6.701-14.2,11.602-29.2,14.4-44.601l25-5.1c12.4-2.5,21-14,20-26.601l-3.5-41.1c-1.1-12.6-11.4-22.5-24.1-22.9l-25.1-0.8
		c-5.201-14.6-12.201-28.399-20.9-41.2l13.699-20.6C879.4,378.638,877.4,364.438,867.699,356.238z M712.801,593.837
		c-44.4,3.801-83.602-29.3-87.301-73.699c-3.801-44.4,29.301-83.601,73.699-87.301c44.4-3.8,83.602,29.301,87.301,73.7
		C790.301,550.938,757.199,590.138,712.801,593.837z"/> <path fill="currentColor" d="M205,704.438c-12.6,1.3-22.3,11.899-22.4,24.6l-0.3,25.3c-0.2,12.7,9.2,23.5,21.8,25.101l18.6,2.399
		c3.1,11.301,7.5,22.101,13.2,32.301l-12,14.8c-8,9.899-7.4,24.1,1.5,33.2l17.7,18.1c8.9,9.1,23.1,10.1,33.2,2.3l14.899-11.5
		c10.5,6.2,21.601,11.101,33.2,14.5l2,19.2c1.3,12.6,11.9,22.3,24.6,22.4l25.301,0.3c12.699,0.2,23.5-9.2,25.1-21.8l2.3-18.2
		c12.601-3.101,24.601-7.8,36-14l14,11.3c9.9,8,24.101,7.4,33.201-1.5l18.1-17.7c9.1-8.899,10.1-23.1,2.301-33.2L496.6,818.438
		c6.6-11,11.701-22.7,15.201-35l16.6-1.7c12.6-1.3,22.299-11.9,22.4-24.6l0.299-25.301c0.201-12.699-9.199-23.5-21.799-25.1
		l-16.201-2.1c-3.1-12.2-7.699-24-13.699-35l10.1-12.4c8-9.9,7.4-24.1-1.5-33.2l-17.699-18.1c-8.9-9.101-23.102-10.101-33.201-2.3
		l-12.101,9.3c-11.399-6.9-23.6-12.2-36.399-15.8l-1.601-15.7c-1.3-12.601-11.899-22.3-24.6-22.4l-25.3-0.3
		c-12.7-0.2-23.5,9.2-25.101,21.8l-2,15.601c-13.199,3.399-25.899,8.6-37.699,15.399l-12.5-10.2c-9.9-8-24.101-7.399-33.201,1.5
		l-18.2,17.801c-9.1,8.899-10.1,23.1-2.3,33.199l10.7,13.801c-6.2,11-11.1,22.699-14.3,35L205,704.438z M368.3,675.837
		c36.3,0.4,65.399,30.301,65,66.601c-0.4,36.3-30.301,65.399-66.601,65c-36.3-0.4-65.399-30.3-65-66.601
		C302.1,704.538,332,675.438,368.3,675.837z"/> 
    </symbol>
    <symbol id="icon_modificator" viewBox="0 0 392.697 392.697">
       <path fill="currentColor" d="M21.837,83.419l36.496,16.678L227.72,19.886c1.229-0.592,2.002-1.846,1.98-3.209c-0.021-1.365-0.834-2.592-2.082-3.145
			L197.766,0.3c-0.903-0.4-1.933-0.4-2.837,0L21.873,77.036c-1.259,0.559-2.073,1.803-2.081,3.18
			C19.784,81.593,20.584,82.847,21.837,83.419z"/> <path fill="currentColor" d="M185.689,177.261l-64.988-30.01v91.617c0,0.856-0.44,1.655-1.167,2.114c-0.406,0.257-0.869,0.386-1.333,0.386
			c-0.368,0-0.736-0.082-1.079-0.244l-68.874-32.625c-0.869-0.416-1.421-1.293-1.421-2.256v-92.229L6.804,95.5
			c-1.083-0.496-2.344-0.406-3.347,0.238c-1.002,0.645-1.608,1.754-1.608,2.944v208.744c0,1.371,0.799,2.615,2.045,3.185
			l178.886,81.768c0.464,0.211,0.96,0.315,1.455,0.315c0.661,0,1.318-0.188,1.892-0.555c1.002-0.645,1.608-1.754,1.608-2.945
			V180.445C187.735,179.076,186.936,177.831,185.689,177.261z"/> <path fill="currentColor" d="M389.24,95.74c-1.002-0.644-2.264-0.732-3.347-0.238l-178.876,81.76c-1.246,0.57-2.045,1.814-2.045,3.185v208.751
			c0,1.191,0.606,2.302,1.608,2.945c0.572,0.367,1.23,0.555,1.892,0.555c0.495,0,0.991-0.104,1.455-0.315l178.876-81.768
			c1.246-0.568,2.045-1.813,2.045-3.185V98.685C390.849,97.494,390.242,96.384,389.24,95.74z"/> <path fill="currentColor" d="M372.915,80.216c-0.009-1.377-0.823-2.621-2.082-3.18l-60.182-26.681c-0.938-0.418-2.013-0.399-2.938,0.045
			l-173.755,82.992l60.933,29.117c0.462,0.211,0.958,0.316,1.455,0.316s0.993-0.105,1.455-0.316l173.066-79.092
			C372.122,82.847,372.923,81.593,372.915,80.216z"/> 
    </symbol>
    <symbol id="icon_source" viewBox="0 0 612.001 612.001">
       <path fill="currentColor" d="M599.751,276.341L489.037,165.537c-7.924-7.924-18.451-12.288-29.65-12.288c-11.179,0-21.699,4.352-29.627,12.261
			c-16.334,16.33-16.342,42.932-0.008,59.296l81.083,81.165l-81.079,81.109c-7.928,7.932-12.287,18.475-12.279,29.688
			c0.007,11.191,4.37,21.707,12.283,29.594c7.92,7.92,18.444,12.279,29.639,12.279c11.202,0,21.729-4.359,29.639-12.279
			l110.714-110.752C616.085,319.269,616.085,292.679,599.751,276.341z M589.092,324.962L478.378,435.714
			c-5.068,5.072-11.809,7.865-18.979,7.865c-7.17,0-13.911-2.793-18.986-7.873c-5.068-5.053-7.856-11.777-7.864-18.945
			c-0.008-7.178,2.788-13.934,7.867-19.016l86.399-86.438c2.943-2.943,2.943-7.713,0.004-10.652l-86.399-86.49
			c-10.463-10.486-10.467-27.532-0.011-37.984c5.079-5.064,11.82-7.853,18.979-7.853c7.17,0,13.915,2.796,18.99,7.871
			l110.714,110.805C599.552,297.465,599.552,314.492,589.092,324.962z"/> <path fill="currentColor" d="M194.525,416.773c0.007-11.209-4.348-21.748-12.28-29.688l-81.075-81.109l81.09-81.173
			c16.323-16.364,16.312-42.962-0.034-59.304c-7.92-7.897-18.437-12.246-29.612-12.246c-11.198,0-21.73,4.363-29.654,12.288
			L12.25,276.334c-16.334,16.345-16.334,42.939,0.004,59.281l110.703,110.74c7.917,7.928,18.448,12.291,29.646,12.291
			s21.722-4.355,29.62-12.264C190.147,438.484,194.518,427.968,194.525,416.773z M171.571,435.718
			c-5.06,5.068-11.797,7.857-18.968,7.857s-13.915-2.793-18.987-7.871L22.914,324.962c-10.464-10.467-10.464-27.501,0-37.969
			L133.62,176.196c5.079-5.075,11.824-7.871,18.994-7.871c7.159,0,13.896,2.785,18.964,7.837
			c10.467,10.463,10.471,27.51,0.015,37.992l-86.407,86.494c-2.939,2.939-2.939,7.708,0.004,10.652l86.399,86.434
			c5.079,5.086,7.875,11.842,7.867,19.021C179.446,423.925,176.654,430.654,171.571,435.718z"/> <path fill="currentColor" d="M410.932,23.764c-4.726-1.76-9.657-2.653-14.665-2.653c-17.435,0-33.203,10.987-39.244,27.333l-180.595,485.89
			c-3.918,10.502-3.508,21.9,1.165,32.104c4.668,10.191,13.014,17.939,23.482,21.801c4.725,1.76,9.653,2.652,14.646,2.652
			c17.416,0,33.207-10.982,39.304-27.336L435.642,77.608C443.652,55.919,432.56,31.763,410.932,23.764z M421.504,72.37
			L240.897,558.294c-3.907,10.479-14.024,17.521-25.177,17.521c-3.191,0-6.349-0.574-9.401-1.711
			c-6.699-2.477-12.035-7.432-15.022-13.949c-2.992-6.529-3.256-13.828-0.739-20.562L371.156,53.681
			c3.866-10.467,13.957-17.499,25.11-17.499c3.206,0,6.363,0.573,9.416,1.711C419.537,43.014,426.636,58.489,421.504,72.37z"/> 
    </symbol>
    <symbol id="icon_style" viewBox="0 0 511 511">
       <path fill="currentColor" d="M39.5,103c1.97,0,3.91-0.8,5.3-2.2c1.4-1.39,2.2-3.33,2.2-5.3s-0.8-3.91-2.2-5.3c-1.39-1.4-3.33-2.2-5.3-2.2
		c-1.98,0-3.91,0.8-5.3,2.2c-1.4,1.39-2.2,3.33-2.2,5.3s0.8,3.91,2.2,5.3C35.59,102.2,37.53,103,39.5,103z"/> <path fill="currentColor" d="M63.5,103c1.97,0,3.91-0.8,5.3-2.2c1.4-1.39,2.2-3.33,2.2-5.3s-0.8-3.91-2.2-5.3c-1.39-1.4-3.33-2.2-5.3-2.2
		c-1.97,0-3.91,0.8-5.3,2.2c-1.4,1.39-2.2,3.33-2.2,5.3s0.8,3.91,2.2,5.3C59.59,102.2,61.53,103,63.5,103z"/> <path fill="currentColor" d="M87.5,103c1.97,0,3.91-0.8,5.3-2.2c1.4-1.39,2.2-3.33,2.2-5.3s-0.8-3.91-2.2-5.3c-1.39-1.4-3.33-2.2-5.3-2.2
		c-1.97,0-3.91,0.8-5.3,2.2c-1.4,1.39-2.2,3.33-2.2,5.3s0.8,3.91,2.2,5.3C83.59,102.2,85.53,103,87.5,103z"/> <path fill="currentColor" d="M375.5,280c-9.098,0-16.5-7.402-16.5-16.5v-24c0-17.369-14.131-31.5-31.5-31.5h-8c-4.142,0-7.5,3.358-7.5,7.5
		s3.358,7.5,7.5,7.5h8c9.098,0,16.5,7.402,16.5,16.5v24c0,9.604,4.32,18.218,11.119,24c-6.799,5.782-11.119,14.396-11.119,24v24
		c0,9.098-7.402,16.5-16.5,16.5h-8c-4.142,0-7.5,3.358-7.5,7.5s3.358,7.5,7.5,7.5h8c17.369,0,31.5-14.131,31.5-31.5v-24
		c0-9.098,7.402-16.5,16.5-16.5c4.142,0,7.5-3.358,7.5-7.5S379.642,280,375.5,280z"/> <path fill="currentColor" d="M167,263.5v-24c0-9.098,7.402-16.5,16.5-16.5h8c4.142,0,7.5-3.358,7.5-7.5s-3.358-7.5-7.5-7.5h-8
		c-17.369,0-31.5,14.131-31.5,31.5v24c0,9.098-7.402,16.5-16.5,16.5c-4.142,0-7.5,3.358-7.5,7.5s3.358,7.5,7.5,7.5
		c9.098,0,16.5,7.402,16.5,16.5v24c0,17.369,14.131,31.5,31.5,31.5h8c4.142,0,7.5-3.358,7.5-7.5s-3.358-7.5-7.5-7.5h-8
		c-9.098,0-16.5-7.402-16.5-16.5v-24c0-9.604-4.32-18.218-11.119-24C162.68,281.718,167,273.104,167,263.5z"/> <path fill="currentColor" d="M295.5,320c-1.97,0-3.91,0.8-5.3,2.2c-1.4,1.39-2.2,3.33-2.2,5.3s0.8,3.91,2.2,5.3c1.39,1.4,3.33,2.2,5.3,2.2
		c1.98,0,3.91-0.8,5.3-2.2c1.4-1.39,2.2-3.33,2.2-5.3s-0.8-3.91-2.2-5.3C299.41,320.8,297.47,320,295.5,320z"/> <path fill="currentColor" d="M255.5,320c-1.97,0-3.91,0.8-5.3,2.2c-1.4,1.39-2.2,3.33-2.2,5.3c0,1.98,0.8,3.91,2.2,5.3c1.39,1.4,3.33,2.2,5.3,2.2
		c1.97,0,3.91-0.8,5.3-2.2c1.4-1.39,2.2-3.33,2.2-5.3s-0.8-3.91-2.2-5.3C259.41,320.8,257.47,320,255.5,320z"/> <path fill="currentColor" d="M215.5,320c-1.98,0-3.91,0.8-5.3,2.2c-1.4,1.39-2.2,3.33-2.2,5.3s0.8,3.91,2.2,5.3c1.39,1.4,3.33,2.2,5.3,2.2
		c1.97,0,3.91-0.8,5.3-2.2c1.4-1.39,2.2-3.33,2.2-5.3s-0.8-3.91-2.2-5.3C219.41,320.8,217.47,320,215.5,320z"/> <path fill="currentColor" d="M119.5,103h304c4.142,0,7.5-3.358,7.5-7.5s-3.358-7.5-7.5-7.5h-304c-4.142,0-7.5,3.358-7.5,7.5S115.358,103,119.5,103z"/> <path fill="currentColor" d="M455.5,103h16c4.142,0,7.5-3.358,7.5-7.5s-3.358-7.5-7.5-7.5h-16c-4.142,0-7.5,3.358-7.5,7.5S451.358,103,455.5,103z"/> <path fill="currentColor" d="M471.5,56h-432C17.72,56,0,73.72,0,95.5v320C0,437.28,17.72,455,39.5,455h432c21.78,0,39.5-17.72,39.5-39.5v-320
		C511,73.72,493.28,56,471.5,56z M39.5,71h432c13.509,0,24.5,10.991,24.5,24.5V120H15V95.5C15,81.991,25.991,71,39.5,71z M471.5,440
		h-432C25.991,440,15,429.009,15,415.5V135h481v280.5C496,429.009,485.009,440,471.5,440z"/> 
    </symbol>
    <symbol id="icon_yuranchik" viewBox="49 199 440 349">
      <path d="M485.4 382.5c-2.5 10.1-2.2 22.1-13.9 18.9l-.2-16.9c2.8-10.8 4.3-20.9 3.9-32-1.2-30.5-5.3-59.6-25.1-83.9l-13.9-17.2-6.7-7.7-9.1-6.3-7.9-7.7-12.1-7.6-15.8-8-14.9-3.9s-18.1-3.2-20.4-2.6c-2.3.6-13.5-.2-13.5-.2l-12.4.5-15.8 3.9c-12.5 3.1-24.8 5.3-36.7 11.5-31.6 16.2-51.4 42.4-66.8 73.7l-4.5 12.5-2.8 12.1-5.9 8.2-4-4.5.8-6.2 4-13 3.6-10.7c4.5-9.4 8.8-18.9 14.9-27.5 9-13.2 25.8-36.4 40.4-43.5l28-13.6 19.8-7.9 22.3-2.9c44.7-6 83.7 13.8 116.4 42.6 36.9 32.2 60.4 91.8 48.3 139.9zm-289.3-37.9l8.5-5.6 10.5-5.7 7.9-4.3 6.3-4.3-.2 2.9-7.1 5.3-11.1 7-8.4 5.7-8 5.3-6.3 4-3.9 2.2-3.1-2.5 6.7-4.5 8.2-5.5zm10.6-21l15.2-8.8 13.6-6.7 13.2-7.9 6-2 3.1 2.8.2.8.5-.5c1.1-1.1 2.8-2.6 2.8-2.6l3.9-2 3.7-.3 2.6 5.1-3.1 9-8.2 8-8.2 10.2-7 6.7-10.6 10.6-9.3 7.9-9.9 9.7-11.8 10.2-5 3.6-2.9.3-3.2 2 .6 4.5-6.3 1.2-3.6.6-3.6 3.6-2.2 1.4-6.3 4.3-3.6 7.6-4.8 10.2-8.5 15.5-16.6 7.9-12.5 4-9.7.5-7.4-.2-6.7-1.7-1.9-5.3 2.8 2.5 6.8.9 6.7-.2 8.5-.6 7.6-1.9 6.5-4.2 5-4.2 3.2-4.3 5.6-6.3 2.5-5.6 3.7-5.7-5 2.6-5.3 1.7 5.9-6.8 2.9-6 8.5-6.8 6.3-5.3 7.6-5.3 4.3-2.2-2.2-2.5 4.2-1.9 5.1-2.5 6.7-3.6 6.7-6.3 6.8-5.1 6.7-5 7.6-6.8 6.2-5 4.8-5.3 1.1-.8-.6-3.6.6-6.7 2.9.9.5 3.6v2.9l4.2-3.9 3.6-3.4 4.8-5.6.5-1.5-1.4.9 1.4-5.4.6-5.6-5.6-1.5-5.6 3.6-6 3.7-9.4 6.7-6.5 3.9-13.6 11.8-13.9 7.7-5.3 3.9-4.5-1.2-5.1 2.2-9.1 7.1-6.3 4.6-8.5 8.2-5.9 5.4-7 5.9-5.9 5.6-5.9 4-10.5 8.2-8.5 6.3-6 5.6-4.5 5.1L96 417l-10.4 9-16.9 13.5-6.2 6.3-11.3-2.2 9.9-8.8 12.9-9.7 15.9-11 8.8-5.9 10.7-9.7 10.8-8.8 11.5-11.3 10.2-7.4 11.1-8.5 8.7-9.7 13.6-8.7 13.5-8.5 17.9-12zm50.3-10.1l2.9-.3 3.2-2.8 1.9-4 1.4-3.7-1.2-2.8-4 .8-3.6 1.2 1.2 5.6-1.2 4.3-1.7 1.2 1.1.5zM65.9 471.4l10.5.6 13.8-.5 8.2-5.3 11-8.8 10.7-8.8 12.7-4.5 14.4-3.4 10.5-3.6 5.9-3.4 5.9-4.3 3.1-3.4 3.7-4.3 2.5-5.1 3.7-4.6 4.2-5 3.1-6.3-3.6 1.7-1.2-2 2.6-5.9 7-2.9 4.8-2 6.3-3.9 6.7-1.9 6-5.1 4.2-3.6 3.1-3.7 2.3-4.6 1.2-2.9.5-4-.2-2.5-2-2.8 2.5.2 3.2 1.1 2.9 3.9-.8 6.3-5.6 6.7-4.2 6.5-6.7 5.3-7.3 6.3-9 4.3-7.1 7.6-5.3 4-4.3 10.1-8.7 9.1-7.4 7.1-11.1 6.2-6 3.2-8 2.3-8.5 2.5-7.1 2.6-9.3 7-2 4.5-1.9 4.8-6.7 5.7-8.2 4.3-9.7 2.3-8.4 2.9-7.4.9-9.3-.2-4.6-1.5-9-3.2-1.2-3.1 7.1 1.2 5.3 2.2 5 .6 5-.2 1.2-2.2-2.5-2.2-5.9-.2-5.3-.8-12.2-3.4.6-2.5 7.7 2.5 8.6 2.1zm32.8 58c.9.2 11.3 1.4 11.3 1.4l14.2 1.7 19.7.2 17.3-1.1 15.2-1.2 23.5-5.9 3.6-9.1 2.2-20.4 1.4-21.4-2-17.5-5-14.5-6.3-11.8-2.5-10.2 6.3-10.2 5.3 11 4.8 11.6 6.8 10.4 7.4 11 8.4 9.4 10.7 8.5 10.8 5.7.9 4.8-6.3-2.2-5.1-2.9-9-7.7-7.9-5.3-6.3-1.2-.6 7.7-.5 17-.5 17.2-1.2 16.4-.8 10.7-3.7 5.6-.5-3.7-5.4 1.7-3.7 1.4-9.4 2.2-12.8 1.2-15-.9-14.5-1.4-16.7.6c-9.9.5-34.2 2.2-40.5-6.7 1-1 4.1-2.4 6.4-2.1zm165.3 1.7l6-1.2 4.5-4 4-5.1 2.5-6.5-.9-7-1.5-7.4-4.5-4.3 2.9-.2 3.6 2.9 3.2 7 1.2 9-2.2 6.3-2.3 4.5-2.2 4-3.6 1.5 1.7 1.7 3.6 1.7-2.5.9-4-2.2-2.9-.3-5 .6-5.9.9-5-.8-4.3-3.4 6.2.9 7.4.5zm12.8-266c.6-.3 1.2-.6 1.4-.9l1.7 2.6c-.5.5-1.2 1.1-2.3 1.7-4.3 2-8.2-.5-10.4-5.3-2.9-6.3-.6-10.5 2.6-12.2 1.2-.6 2-.6 2.5-.6l.8 2.9c-.5 0-.9.2-1.7.5-1.9.9-2.8 3.2-.8 7.6 1.9 3.7 4.2 4.6 6.2 3.7zm18.6 104.7l3.6-.9 2-.8 4.8.5 4.3.9-1.1 2.3-4.3.5-6 .2-5.7-.2-3.2-.9-1.2-1.5 3.4.5 3.4-.6zm-8.8-9.1l-2.9.5-2.7-.2-4.8.9-2.8-2.8 1.4-.9 3.6-1.9 4 .2 2.6.5 4.2-.6 2.9-.6 2.2.2 3.7-2.3s1.2.2 2.2.2c.6 0 1.2.2 1.2.2l-5.6-1.2-4.3-.2-3.7-.5-.8-1.7h4.2l6-.3 4.6.9 3.2 1.1 1.7 3.7 2.8 2.8-4 1.2-4.6.6-.5 2.5-.6 1.5-3.7 1.9-6.5 1.1-2.6-3.6-.4-3.2zm49.5 105.7l-2.9-.9-3.7-.8-2.9-2.3 2-1.4 4.3.8 6.8-.8 5.9.5 3.6.5-1.5 3.4-4.6.9-7 .1zm55.1-99.5l3.6-1.2h3.2l-.5 1.5-3.7.6-4.6-.5.9-.3c.6.1 1.1-.1 1.1-.1zm-17.2 6l-4-1.2-2.8-.5-2-2 1.2-1.2 2.8 1.1 2.9.2 3.6.8 4 .2 4 .9-1.4 1.4-4.2.6-4.1-.3zm18.4 41.7l.6 2.6.6 6.8 1.4 6.2-1.2-3.6-2.6-3.2-2.2-2.6-3.1-2.5-4.8-1.2-3.7-1.5-5.3-1.7-1.5-3.2 2.5-1.4 3.4 2.2 5.4 2 4 .5 6.5.6zm-94.5-164.1c2.8.9 4 2.8 4.3 4.6.6 3.4-1.4 6-5 6.8-1.4.3-2.9.2-3.7 0l-.2-3.2c.8.3 2.2.3 3.2.2 1.7-.3 2.3-1.4 2.2-2.6-.3-1.4-1.2-1.9-2.9-2.5-2.8-1.1-4.2-2.8-4.5-4.5-.6-2.9.9-5.9 4.8-6.7 1.2-.3 2.5-.2 2.9.2v3.2c-.6-.2-1.4-.5-2.5-.2-1.5.3-2 1.4-1.9 2.3.5 1.2 1 1.7 3.3 2.4zm30.6-2.4c2.5 1.4 3.4 3.4 3.4 5.4 0 3.4-2.5 5.7-6.2 5.7-1.5 0-2.9-.5-3.6-.8l.5-3.2c.8.5 2 .6 3.1.6 1.7 0 2.5-.9 2.5-2.2 0-1.4-.9-2-2.5-3.1-2.5-1.5-3.6-3.6-3.6-5.3 0-2.9 2-5.6 5.9-5.6 1.2 0 2.5.3 2.9.6l-.6 3.2c-.5-.3-1.4-.6-2.3-.6-1.5 0-2.3.9-2.3 2 .3 1.4.8 2 2.8 3.3zm24.3-1.1c.5-2.9 2.8-5.3 6.7-4.6 1.2.2 2.3.6 2.8 1.1l-.9 2.9c-.5-.5-1.2-.8-2.2-.9-1.5-.2-2.5.6-2.5 1.7-.2 1.1.3 1.7 2.2 3.2 2.3 1.9 2.9 3.9 2.6 5.9-.5 3.4-3.2 5.3-6.8 4.8-1.4-.2-2.9-.8-3.6-1.2l.9-3.1c.6.5 2 .9 2.9 1.2 1.7.2 2.6-.6 2.8-1.7.2-1.4-.6-2.2-2-3.4-2.4-2.2-3-4.2-2.9-5.9zm33.4 12.8l-.5-.2-2.2 7.1-3.6-1.1 5.4-17.8c1.2.2 2.6.5 3.9.8 2 .6 3.6 1.4 4.3 2.8.8 1.4.8 2.6.3 4.2-.6 2-2 3.4-4.2 3.7v.2c1.1.9 1.4 2.2 1.1 4.3s-.5 4.5-.3 5.3l-3.7-1.1c-.2-.6.2-2.5.5-4.6.6-2.3.1-3.3-1-3.6zm4.2-4.8c.5-1.5.2-2.8-1.4-3.2-.3-.2-.6-.2-.9-.2l-1.7 5.3.6.2c1.7.6 2.9-.5 3.4-2.1zM270.6 458.4l-7.7-4.8-9.7-8.8-5.3-4.3-5.7-6-6.2-5.9-3.4-3.2-4.3.8-7.7-20 3.6-1.2 16.7 19.5 10.2 11.6 9.7 8.2 2.6-4.3-2.2-17.3-.2-11-2-9.3-2-8.7c-5.9-25.4 4.5-67.5 35.7-68.9.2 0 10.4-.5 10.4-.5l11.5-.5 10.2-1.2 7.9.5 10.8-.9 9.4.5 11.8 1.5 12.5 1.4 9.1 3.9 9.9 1.4 3.9 1.9 3.6 4.5 3.2 8.7 3.1 6.8 1.4 5.6.5 6.7-3.2 1.7-1.2-4.5-2-4.6-.9-5.9-2-5.1-2.5-5.9-3.6-2-2.9-1.2-1.9 1.4 1.7 1.4 4.3 2.3-3.6 1.1-5 .9-4.2 1.2-4.5 1.2-6.7 2.2-5.4 1.7-4.3.6-2.2 2 2 .9 3.9-1.2 3.7-.8h7.1l5.3-.3.9 1.5-4.2.3-4.3.2h-5.3l-3.6 1.5 2.6.8 4.5.2 7.3-.2h4.6l5.7.5 5.1 1.7 4.3 4.2-2.6.6-4.8-.9-3.4-1.7-4.2-.8-2.8.9.8 2.6-2 2.9-4 1.2-5.1-.6-2.9-1.2-.2-2.6-2-1.7-2.5-.6-.3 3.2-2.8 1.5-2-2 .6-1.5-2.2-1.2-2.5 2.9-3.4 3.6-4.5-2.6-.5-6.5 1.2-7.1 2.2-4 6.7-3.2 10.4-3.2 8.7-2.5 2.2-2.8-10.5-1.4-12.1-1.1s-13.6-.6-14.7-.5c-1.2.2-15.6.3-15.6.3l-11.3.2-11.3.6h-8l4.5 2.9 10.5 3.9 6.8 3.4 7.7 4.8-.5 39.1.2 6.2.2 5.6 5.4 2 6.7.2 5.7-.6 2.5-1.4 2-1.7 1.7-.5 1.7 1.5 1.4 2.8 2.2 1.2 2.6.6 1.2-1.2-.2-2.3-3.2-2.2-.6-2.9 2.9.2 3.6 3.7 2.2 2.2-.5 2.9-2.3 2.8-2.8 2-1.7 2.5-3.6 1.7-4.5.6-3.6.2-1.7 2.2-4 1.5-5-.9-3.6-1.1-1.2-2.2-2.8 1.1-5.4-.5-2.5-1.4-2.5-2-.3-2.2-2.3-2.2-3.2.2-5.4 1.9-6.3 1.7-5.9 3.7-6.5 4.8-3.2 4 2.9 2.5 4.3 1.4 5.4 1.9 5.3 2 8.2.6 5.1.3-.5 2.8h-4l-3.6.2-.6 1.4 1.7 3.9 3.6 2.8 4.3 1.7 4.2-.2 5.9 1.9 6.5 1.4 7.3.2 8.5-1.7 5.9-.2 4.8-1.7 4-.6 4-1.2 4.2-2.9 2.9-3.2-4 .2-8-.6-6.8.6-8.4.8-7.1.2-7.6-.3-.8-1.2h-5.9l-4.6-.9-3.7-.5 4-2.2 6.7-.2 5.1.9 5.6-.2h15.9l7.6-.3 6.7-1.4 5.7-1.2 6-2.8 4.6-1.7 2.5 2.2-2.2 4.3-2.5 3.7-4.3 5.3-4.5 3.1-4.5 3.2-5.6 4.3-7.1 2-2.3-.9 2.8-1.1 4-2.8.2-2-4.8.5-2.5.8-6.8 1.9-5.4.3-5.6.2-5.4.2h-6.3l-2.8 1.7 3.1 3.2 5.3-.2 7.1 1.5 5.7-.6 4.2.6-.3 1.4-4.8 1.2-6.8-.3-10.8-.5-9.9-3.7-5.6-4.2-5.4-4-5-4.2-3.7-3.6-3.7-.2-2.8-1.7-5.9-5.1-3.6-4-3.1-6.3 1.9-5.6 8.7-4.3 3.7-1.7 5.7-3.7 1.2-2.2 3.7-1.9 5.3-4 5.6-3.2 4-4.2.9-5.9.3-9-.6-13.3-4.6-4.5-2.8-4.3s-2.8-2.9-3.6-2.9-5.7-2.2-5.7-2.2l-7.7-2.2-6.8-3.4-5.1-2.5-6 .6-3.2 3.2-5.7 16.6-4.2 11 1.5 11 3.2 15.9 5.1 18.3 3.6 18.6 4 20.9 2.8 3.7 4.8 2.8 5.1 2.8 5.7 1.7 7.3 2.9 8.2 2 7.1 1.2 10.4 1.4 8-.2 6.8.5 7.1-1.4 9-2.5 6-2.6 8.4-2.9 7.1-3.2 4.5-2.9 5.6-3.9 2.2-4.5 2.3-4.6 2-5.3 1.2-3.7 1.5-7.3 1.1-4.5 1.9-6.7 1.5-9.3s.6-5.9.6-6.7.9-5.7.9-5.7l.8-4-.2-6.3 1.2-6.8-.2-4.5 1.2-2.5 3.2-.3-.5 4.3-.9 7.9-.6 6.5-.8 6.3-.5 9.6-.9 7.9-1.4 9.4-2.3 12.1-1.9 7.7 1.4 1.7 6.8-5.1 6.3-5.6 5.1-5.9 6.8-8.5 5-8.2 5.7-11 4.5-7.9 1.1-12.1-1.2-12.2-4.8-10.2-6.7-11.5-5.9-8.8-8.8-11.6-8.5-7.1-6.7-6-9.3-6.5-13-4-11-6.7-11.9-2.9-10.8-.9-8.5-1.2-13.9-.5-12.1.9-7.9 1.5-10.2 2.9-8.5-.5 3.2-2.9 2.5-3.6 3.1-3.1 10.4-2.5 13.3-1.7c9.9-.5 37.1-4.8 44.3 2.2l5.7 5.6 16.2 8 4.8-.3 7.9 2.8 9.4 6.3 9.4 7.4 9 9.9 11.6 10.1 5.6 7.9 3.9 10.1 3.6 5.6 2.6-1.5-1.2-6.3-2-8.2-3.2-6.3-2.8-6.8-3.6-7.1-2.8-3.1-4-7.6.8-3.6 6.2 4.5 6.7 9.6 4.3 10.4 5.1 10.8 3.2 17.5 2.2 16.2-.5 16.9-.9 9.1-1.7 8.8-1.2 7.1-4.5 5.1 1.2-6 .2-7.3 1.7-7.7-.5-4.8-3.6.8-2.8 3.9-4.8 9.7-7.4 9.6-8.7 9.1-8.2 9.3-9.1 9-7.1 5.9-8.2 5.7-5.7 3.2-8.5 3.7-6.5.9-9 3.7-11.6 2.2-9.6 2.2-10.2.5-10.8.6-9.7-2.3-11.9-2-10.4-2.5-7.3-4.3-10.1-5.4-2.7-3.4zm175.1 61.1l.5-8-.9-12.4.3-11.9.2-11.3-.2-9.3 3.7-6.7 4.8-12.5 4.3-12.8 2.9-12.1 2.6 2.5-2.9 9.4-.9 14.1 1.2 13.3 8.5 7.1 3.7-6 2.9-12.8 2-13.3.3-8.4-.5-8.5-3.6-6.7 1.2-3.2 3.1 4.8L482 428l.8 12.8-2.2 15.5-4.3 16.7-5.1 6.7-8.7-.2-1.4 3.4 1.2 29.1-.9 10.8 8.7 4.3 2.9 5.9-7.7-1.2-8.8-.6-8.5-.6-4.5 2.8-6.5 3.7-11 .3-10.8 3.6-11 3.7-11.3 1.2-10.2 1.5 1.7-2.6 61.3-25.3z" fill="currentColor"/>
    </symbol></svg>